<svg width="34" height="34" viewBox="0 0 34 34" fill="none" xmlns="http://www.w3.org/2000/svg">
<path d="M19.2538 17.0022L25.5624 10.6936C25.8618 10.3947 26.0302 9.98911 26.0306 9.56606C26.0309 9.14301 25.8632 8.73714 25.5644 8.43774C25.2655 8.13834 24.8599 7.96992 24.4369 7.96955C24.0138 7.96918 23.608 8.13687 23.3085 8.43575L17 14.7443L10.6914 8.43575C10.392 8.13634 9.98588 7.96814 9.56246 7.96814C9.13904 7.96814 8.73296 8.13634 8.43355 8.43575C8.13415 8.73515 7.96594 9.14123 7.96594 9.56465C7.96594 9.98808 8.13415 10.3942 8.43355 10.6936L14.7421 17.0022L8.43355 23.3107C8.13415 23.6102 7.96594 24.0162 7.96594 24.4397C7.96594 24.8631 8.13415 25.2692 8.43355 25.5686C8.73296 25.868 9.13904 26.0362 9.56246 26.0362C9.98588 26.0362 10.392 25.868 10.6914 25.5686L17 19.26L23.3085 25.5686C23.608 25.868 24.014 26.0362 24.4375 26.0362C24.8609 26.0362 25.267 25.868 25.5664 25.5686C25.8658 25.2692 26.034 24.8631 26.034 24.4397C26.034 24.0162 25.8658 23.6102 25.5664 23.3107L19.2538 17.0022Z" fill="white"/>
</svg>
