<svg width="43" height="44" viewBox="0 0 43 44" fill="none" xmlns="http://www.w3.org/2000/svg">
<g clip-path="url(#clip0_44_576)">
<path d="M21.5789 0.561401C21.9267 0.561401 22.2675 0.637916 22.6014 0.790945C22.9353 0.943974 23.2274 1.13874 23.4778 1.37524L42.1335 20.0309C42.4117 20.3091 42.6134 20.6221 42.7386 20.9699C42.8638 21.3177 42.9334 21.6794 42.9473 22.055C42.9473 22.4167 42.8708 22.7576 42.7178 23.0775C42.5647 23.3975 42.37 23.6757 42.1335 23.9122L23.5613 42.4844C23.0187 43.027 22.3579 43.2982 21.5789 43.2982C21.2311 43.2982 20.8902 43.2217 20.5564 43.0687C20.2225 42.9157 19.9303 42.7209 19.6799 42.4844L1.02429 23.8288C0.787786 23.5923 0.593022 23.3071 0.439993 22.9732C0.286964 22.6393 0.210449 22.2915 0.210449 21.9298C0.210449 21.5681 0.280008 21.2134 0.419125 20.8656C0.558243 20.5178 0.759963 20.2117 1.02429 19.9474L13.8161 7.15556L18.6574 11.9968C18.4905 12.4003 18.407 12.8246 18.407 13.2698C18.407 14.1601 18.727 14.9253 19.3669 15.5652L19.5338 15.7321C19.5617 15.76 19.5964 15.7808 19.6382 15.7947C19.6799 15.8087 19.7217 15.8156 19.7634 15.8156C19.8051 15.8156 19.8747 15.8434 19.9721 15.8991V27.731C19.8051 27.8006 19.666 27.898 19.5547 28.0232C19.4434 28.1484 19.3182 28.2736 19.1791 28.3988C18.8174 28.7605 18.5322 29.1431 18.3235 29.5465C18.1148 29.9499 18.0105 30.416 18.0105 30.9446C18.0105 31.4176 18.1009 31.8558 18.2818 32.2593C18.4626 32.6627 18.7061 33.0244 19.0122 33.3444C19.3182 33.6644 19.6799 33.9078 20.0973 34.0748C20.5146 34.2417 20.9598 34.3321 21.4328 34.346C21.9058 34.346 22.3579 34.2695 22.7892 34.1165C23.2205 33.9635 23.5891 33.7478 23.8952 33.4696C24.2012 33.1914 24.4516 32.8436 24.6464 32.4262C24.8412 32.0089 24.9386 31.5567 24.9386 31.0698C24.9386 30.7638 24.8968 30.4577 24.8133 30.1517C24.7299 29.8456 24.6047 29.5604 24.4377 29.2961C24.2708 29.0318 24.076 28.7814 23.8534 28.5449C23.6309 28.3084 23.3874 28.1205 23.1231 27.9814V16.4834L27.547 20.9073C27.3801 21.3108 27.2966 21.7281 27.2966 22.1594C27.2966 22.6185 27.3801 23.0428 27.547 23.4323C27.7139 23.8218 27.9504 24.1696 28.2565 24.4757C28.5626 24.7817 28.9034 25.0113 29.279 25.1643C29.6546 25.3173 30.0859 25.4078 30.5728 25.4356C31.0319 25.4356 31.4562 25.3521 31.8457 25.1852C32.2353 25.0182 32.583 24.7817 32.8891 24.4757C33.1952 24.1696 33.4247 23.8288 33.5777 23.4532C33.7308 23.0775 33.8212 22.6463 33.849 22.1594C33.849 21.7142 33.7655 21.2968 33.5986 20.9073C33.4317 20.5178 33.1952 20.17 32.8891 19.8639C32.583 19.5579 32.2422 19.3214 31.8666 19.1544C31.491 18.9875 31.0667 18.8971 30.5937 18.8832C30.2181 18.8832 29.8564 18.9458 29.5086 19.071L24.7716 14.334C24.8968 13.9862 24.9594 13.6245 24.9594 13.2489C24.9594 12.7898 24.876 12.3655 24.709 11.976C24.5421 11.5864 24.3056 11.2387 23.9995 10.9326C23.6935 10.6265 23.3526 10.397 22.977 10.244C22.6014 10.0909 22.1701 10.0075 21.6832 9.99356C21.3493 9.99356 21.0015 10.0492 20.6398 10.1605L15.7151 5.23574L19.5964 1.37524C20.139 0.83268 20.7998 0.561401 21.5789 0.561401Z" fill="white"/>
</g>
<defs>
<clipPath id="clip0_44_576">
<rect width="42.7368" height="42.7368" fill="white" transform="translate(0.210449 0.561401)"/>
</clipPath>
</defs>
</svg>
