<svg width="44" height="44" viewBox="0 0 44 44" fill="none" xmlns="http://www.w3.org/2000/svg">
<path d="M21.7893 4.56799C18.3555 4.56799 14.9988 5.58625 12.1436 7.49399C9.28848 9.40173 7.06317 12.1133 5.74909 15.2857C4.43501 18.4582 4.09119 21.9491 4.7611 25.317C5.43101 28.6848 7.08457 31.7784 9.51266 34.2065C11.9408 36.6346 15.0343 38.2882 18.4022 38.9581C21.7701 39.628 25.261 39.2842 28.4334 37.9701C31.6059 36.656 34.3174 34.4307 36.2252 31.5756C38.1329 28.7204 39.1512 25.3637 39.1512 21.9298C39.1463 17.3267 37.3156 12.9135 34.0606 9.65853C30.8057 6.4036 26.3925 4.57285 21.7893 4.56799ZM34.0144 28.9848C33.0745 30.4872 31.6222 31.2785 29.8142 31.2785C26.3535 31.2785 24.003 27.0532 21.5139 22.5792C19.6976 19.3139 17.4372 15.2522 15.5474 15.2522C13.4724 15.2522 11.1051 20.0735 11.1051 24.3021C11.1051 25.681 11.3555 26.8062 11.8297 27.5674C12.2737 28.2736 12.8881 28.6075 13.7645 28.6075C14.7795 28.6075 16.0215 27.4389 17.5607 25.0166C17.756 24.7294 18.0554 24.5296 18.3955 24.4595C18.7356 24.3893 19.0896 24.4544 19.3825 24.641C19.6754 24.8275 19.8841 25.1207 19.9645 25.4586C20.0448 25.7964 19.9904 26.1522 19.8128 26.4506C17.0883 30.7293 15.1484 31.2785 13.7645 31.2785C11.9565 31.2785 10.5041 30.4855 9.56427 28.9848C8.82472 27.8028 8.43408 26.1835 8.43408 24.3104C8.46352 21.6881 9.09161 19.1072 10.2704 16.7647C11.6627 14.0669 13.5375 12.5812 15.5474 12.5812C19.0081 12.5812 21.3586 16.8064 23.8477 21.2804C25.664 24.5441 27.9244 28.6075 29.8142 28.6075C30.6906 28.6075 31.305 28.2736 31.749 27.5674C32.2231 26.8112 32.4736 25.681 32.4736 24.3021C32.4736 20.0735 30.1063 15.2522 28.0313 15.2522C27.4637 15.2522 26.8042 15.6378 26.0714 16.4008C25.9498 16.5273 25.8045 16.6286 25.6438 16.6989C25.4831 16.7693 25.3101 16.8073 25.1347 16.8107C24.9593 16.8142 24.7849 16.7831 24.6215 16.7192C24.4581 16.6553 24.3089 16.5599 24.1824 16.4383C24.0559 16.3168 23.9546 16.1715 23.8843 16.0108C23.8139 15.85 23.7759 15.677 23.7724 15.5016C23.769 15.3262 23.8001 15.1519 23.864 14.9885C23.9279 14.8251 24.0233 14.6759 24.1449 14.5494C25.4186 13.2255 26.6891 12.5812 28.0313 12.5812C30.0345 12.5812 31.916 14.0669 33.3099 16.7647C34.4875 19.1047 35.1156 21.6826 35.1463 24.3021C35.1446 26.1835 34.754 27.8028 34.0144 28.9848Z" fill="white"/>
</svg>
