<svg width="44" height="44" viewBox="0 0 44 44" fill="none" xmlns="http://www.w3.org/2000/svg">
<path d="M18.5122 40.1945L17.4616 40.6058C15.1057 41.6208 12.8068 42.228 10.7448 42.2708C8.66847 42.3135 6.67409 41.7757 5.22104 40.312C3.83743 38.9248 3.28363 37.0498 3.26939 35.0821C3.25692 33.1233 3.77154 30.9473 4.66546 28.7143C6.45328 24.2412 9.89182 19.2053 14.5127 14.5933C19.1319 9.98665 24.1659 6.54811 28.6355 4.75673C30.8667 3.86282 33.0409 3.34641 34.9979 3.3571C36.9656 3.36956 38.8442 3.92158 40.2296 5.30875C41.6898 6.76892 42.2276 8.75796 42.1866 10.836C42.1439 12.9052 41.5295 15.2094 40.5092 17.5742L40.5021 17.5902L39.6758 19.4546C39.8343 20.4216 39.9127 21.4027 39.9127 22.407V25.0176H35.582L14.3899 25.217C14.876 26.7947 15.6702 28.1409 16.7279 29.1345C18.0029 30.3383 19.7035 31.0719 21.8421 31.0719C23.7551 31.0802 25.6198 30.4713 27.1593 29.3358L27.3961 29.1612H38.6858L38.0411 30.4505C37.8846 30.7673 37.7159 31.078 37.5354 31.3818C37.1631 32.0365 36.7479 32.6659 36.2925 33.2658C34.6096 35.5133 32.4254 37.3372 29.9137 38.5923C27.402 39.8474 24.6321 40.499 21.8243 40.4954C20.6918 40.4954 19.5842 40.3939 18.5122 40.1945ZM23.516 11.6463C21.1998 13.2784 19.0293 15.1081 17.0289 17.1148C16.5926 17.5511 16.167 17.9891 15.7557 18.4307H30.856L30.5177 17.2857C29.7342 14.6396 26.9509 12.3906 23.516 11.6463ZM7.08009 32.89C6.91897 33.6013 6.83538 34.3279 6.83079 35.0571C6.83969 36.398 7.2083 37.2617 7.74251 37.7959L7.74785 37.8012C8.30165 38.3604 9.22049 38.7396 10.6735 38.7094C11.4268 38.6951 12.2815 38.5669 13.2199 38.3247C10.7853 37.0041 8.68464 35.1446 7.07831 32.8883L7.08009 32.89ZM37.9664 14.2372C38.3902 12.9248 38.6039 11.7567 38.6252 10.763C38.6537 9.31532 38.2762 8.39114 37.7099 7.82488C37.1757 7.29067 36.3139 6.92384 34.9766 6.91672C34.0951 6.91138 33.0659 7.06452 31.9102 7.39039C34.4786 9.12018 36.5631 11.4768 37.9664 14.2372ZM12.6181 12.7004C8.85011 16.4631 5.8336 20.5231 3.83921 24.3694C3.76911 23.7176 3.73404 23.0626 3.73415 22.407C3.73415 12.4173 11.8346 4.31867 21.8243 4.31867C22.3692 4.31867 22.907 4.34182 23.4394 4.3899C19.8531 6.37539 16.11 9.2156 12.6181 12.7004Z" fill="white"/>
</svg>
