<svg width="44" height="44" viewBox="0 0 44 44" fill="none" xmlns="http://www.w3.org/2000/svg">
<path fill-rule="evenodd" clip-rule="evenodd" d="M12.2585 20.8414L19.0163 24.1361C20.3157 24.7705 20.1154 26.6816 18.7118 27.0315L11.4171 28.8505C10.5076 29.0776 9.60882 28.4499 9.50197 27.5177C9.27717 25.5687 9.48511 23.5942 10.111 21.7348C10.1816 21.5263 10.2959 21.3353 10.4461 21.1744C10.5964 21.0135 10.7792 20.8865 10.9824 20.8019C11.1856 20.7172 11.4045 20.6768 11.6246 20.6834C11.8446 20.69 12.0607 20.7434 12.2585 20.84V20.8414ZM14.9643 34.7509L19.9939 29.1644C20.9608 28.0893 22.7437 28.8105 22.6916 30.2555L22.4299 37.7705C22.4221 37.9912 22.3673 38.2076 22.2691 38.4054C22.1709 38.6031 22.0316 38.7777 21.8606 38.9173C21.6895 39.0568 21.4906 39.1583 21.2771 39.2148C21.0637 39.2713 20.8406 39.2816 20.6229 39.2449C18.6902 38.9192 16.852 38.1754 15.2367 37.0653C15.0549 36.9403 14.9019 36.7779 14.7879 36.589C14.6739 36.4001 14.6016 36.189 14.5758 35.9699C14.5501 35.7507 14.5714 35.5286 14.6384 35.3184C14.7053 35.1082 14.8165 34.9147 14.9643 34.7509ZM26.8892 27.3173L34.0383 29.6412C34.9277 29.9296 35.3618 30.9366 34.9598 31.7807C34.1158 33.5497 32.8956 35.1131 31.3846 36.3615C31.2143 36.5022 31.0159 36.6048 30.8028 36.6626C30.5896 36.7204 30.3666 36.7319 30.1486 36.6965C29.9306 36.6611 29.7227 36.5796 29.5387 36.4573C29.3548 36.335 29.1991 36.1749 29.0821 35.9876L25.0969 29.6104C24.3303 28.3844 25.5136 26.8699 26.8892 27.3173ZM34.1598 22.7565L26.9333 24.8293C25.543 25.2272 24.4131 23.6727 25.2211 22.4734L29.4267 16.2405C29.5496 16.058 29.71 15.9038 29.8972 15.7881C30.0844 15.6724 30.2941 15.598 30.5123 15.5697C30.7305 15.5414 30.9523 15.5599 31.1628 15.6239C31.3733 15.688 31.5677 15.7962 31.7331 15.9413C33.2049 17.2387 34.3723 18.8448 35.1521 20.6451C35.2404 20.8475 35.2844 21.0664 35.2813 21.2872C35.2782 21.508 35.2281 21.7256 35.1341 21.9255C35.0402 22.1254 34.9047 22.3029 34.7367 22.4462C34.5687 22.5895 34.372 22.6953 34.1598 22.7565ZM17.2734 5.22106C15.9726 5.56829 14.7319 6.02905 13.558 6.58864C13.3655 6.68103 13.1941 6.81221 13.0547 6.97396C12.9153 7.13572 12.8109 7.32454 12.7479 7.52858C12.685 7.73262 12.6649 7.94747 12.6889 8.15965C12.7129 8.37182 12.7805 8.57674 12.8875 8.76154L19.9511 20.995C20.7431 22.3679 22.8412 21.8056 22.8412 20.2204V6.09449C22.8415 5.88099 22.7976 5.66975 22.7123 5.47401C22.627 5.27828 22.5022 5.10228 22.3457 4.95706C22.1892 4.81184 22.0044 4.70054 21.8029 4.63014C21.6013 4.55974 21.3874 4.53176 21.1745 4.54795C19.879 4.65079 18.5742 4.87249 17.2734 5.22106Z" fill="white"/>
</svg>
