<svg width="43" height="43" viewBox="0 0 43 43" fill="none" xmlns="http://www.w3.org/2000/svg">
<path fill-rule="evenodd" clip-rule="evenodd" d="M40.458 11.0181C40.7552 10.0766 40.458 9.3921 39.1434 9.3921H34.772C33.6694 9.3921 33.1602 9.99142 32.8631 10.6325C32.8631 10.6325 30.6144 16.1081 27.4742 19.6581C26.4559 20.6848 25.9893 21.027 25.4375 21.027C25.1404 21.027 24.7581 20.6848 24.7581 19.7441V10.9739C24.7581 9.86204 24.4192 9.34869 23.4852 9.34869H16.6105C15.9311 9.34869 15.5071 9.86204 15.5071 10.3754C15.5071 11.4446 17.0771 11.7017 17.2466 14.6958V21.2015C17.2466 22.613 16.9962 22.8709 16.4403 22.8709C14.9553 22.8709 11.3486 17.3527 9.18501 11.0648C8.76431 9.81947 8.33695 9.34869 7.23347 9.34869H2.82039C1.54746 9.34869 1.33545 9.94718 1.33545 10.5891C1.33545 11.7443 2.82039 17.5613 8.25181 25.2607C11.8586 30.5193 16.9928 33.3456 21.6179 33.3456C24.4192 33.3456 24.7581 32.7037 24.7581 31.6345V27.6563C24.7581 26.3733 25.0127 26.1596 25.9041 26.1596C26.5402 26.1596 27.6862 26.501 30.2746 29.0252C33.2445 32.0193 33.7537 33.3882 35.4089 33.3882H39.7794C41.0523 33.3882 41.6466 32.7463 41.3069 31.5059C40.9255 30.2655 39.4823 28.4693 37.615 26.3307C36.5967 25.1338 35.0692 23.8074 34.6026 23.1655C33.9665 22.31 34.136 21.9677 34.6026 21.1982C34.56 21.1982 39.9071 13.584 40.458 11.0148" fill="white"/>
</svg>
