<svg width="44" height="44" viewBox="0 0 44 44" fill="none" xmlns="http://www.w3.org/2000/svg">
<g clip-path="url(#clip0_44_571)">
<path d="M22.1056 39.025C18.7246 39.025 15.4195 38.0224 12.6083 36.144C9.79708 34.2656 7.60601 31.5957 6.31215 28.4721C5.01829 25.3484 4.67976 21.9113 5.33936 18.5952C5.99896 15.2791 7.62708 12.2332 10.0178 9.84241C12.4086 7.45167 15.4546 5.82355 18.7706 5.16395C22.0867 4.50434 25.5238 4.84287 28.6475 6.13673C31.7712 7.43059 34.441 9.62167 36.3194 12.4329C38.1978 15.2441 39.2004 18.5492 39.2004 21.9302C39.2004 26.464 37.3993 30.8121 34.1934 34.018C30.9875 37.2239 26.6394 39.025 22.1056 39.025ZM22.1056 0.561791C19.2947 0.544772 16.5084 1.08586 13.9082 2.1537C11.308 3.22154 8.94557 4.79488 6.95793 6.78252C4.97029 8.77015 3.39695 11.1326 2.32911 13.7328C1.26128 16.333 0.720187 19.1193 0.737206 21.9302C0.720187 24.7411 1.26128 27.5274 2.32911 30.1276C3.39695 32.7279 4.97029 35.0903 6.95793 37.0779C8.94557 39.0656 11.308 40.6389 13.9082 41.7067C16.5084 42.7746 19.2947 43.3157 22.1056 43.2986C24.9165 43.3157 27.7028 42.7746 30.3031 41.7067C32.9033 40.6389 35.2657 39.0656 37.2533 37.0779C39.241 35.0903 40.8143 32.7279 41.8821 30.1276C42.95 27.5274 43.4911 24.7411 43.4741 21.9302C43.4911 19.1193 42.95 16.333 41.8821 13.7328C40.8143 11.1326 39.241 8.77015 37.2533 6.78252C35.2657 4.79488 32.9033 3.22154 30.3031 2.1537C27.7028 1.08586 24.9165 0.544772 22.1056 0.561791Z" fill="white"/>
<path d="M29.5628 25.4984C27.4259 25.4984 26.5071 24.2804 26.5071 21.8444C26.5071 19.4084 27.4259 18.1904 29.5628 18.1904C30.7808 18.1904 31.4005 18.81 31.9988 20.028L34.7553 18.5109C34.1811 17.5022 33.3258 16.6823 32.2939 16.1512C31.2619 15.62 30.0977 15.4005 28.9431 15.5193C28.0959 15.4978 27.2532 15.6498 26.4668 15.9658C25.6805 16.2818 24.967 16.7552 24.3702 17.357C23.7452 17.9362 23.2563 18.6467 22.9386 19.4373C22.6208 20.228 22.4822 21.0792 22.5326 21.9298C22.4779 22.8288 22.6134 23.7292 22.93 24.5723C23.2466 25.4155 23.7374 26.1824 24.3702 26.8232C24.967 27.425 25.6805 27.8984 26.4668 28.2144C27.2532 28.5304 28.0959 28.6824 28.9431 28.6609C30.1132 28.6367 31.2581 28.3163 32.2708 27.7296C33.2835 27.143 34.1309 26.3091 34.7339 25.306L31.9988 24.0667C31.7438 24.4961 31.3895 24.858 30.9656 25.122C30.5417 25.386 30.0606 25.5444 29.5628 25.5838V25.4984ZM16.7417 25.4984C14.6049 25.4984 13.686 24.2804 13.686 21.8444C13.686 19.4084 14.6049 18.1904 16.7417 18.1904C17.9597 18.1904 18.5794 18.81 19.1777 20.028L21.9342 18.5109C21.36 17.5022 20.5048 16.6823 19.4728 16.1512C18.4408 15.62 17.2766 15.4005 16.122 15.5193C15.2748 15.4978 14.4321 15.6498 13.6458 15.9658C12.8594 16.2818 12.1459 16.7552 11.5492 17.357C10.9242 17.9362 10.4353 18.6467 10.1175 19.4373C9.79978 20.228 9.66112 21.0792 9.7115 21.9298C9.65689 22.8288 9.79231 23.7292 10.1089 24.5723C10.4256 25.4155 10.9163 26.1824 11.5492 26.8232C12.1459 27.425 12.8594 27.8984 13.6458 28.2144C14.4321 28.5304 15.2748 28.6824 16.122 28.6609C17.2921 28.6367 18.437 28.3163 19.4497 27.7296C20.4624 27.143 21.3099 26.3091 21.9129 25.306L19.1777 24.0667C18.9227 24.4961 18.5684 24.858 18.1445 25.122C17.7206 25.386 17.2395 25.5444 16.7417 25.5838V25.4984Z" fill="white"/>
</g>
<defs>
<clipPath id="clip0_44_571">
<rect width="42.7368" height="42.7368" fill="white" transform="translate(0.736816 0.561401)"/>
</clipPath>
</defs>
</svg>
